<svg xmlns="http://www.w3.org/2000/svg" viewBox="0 0 54.98 57.33"><defs><style>.cls-1{fill:#fff;}</style></defs><title>125422-OR2GKL-211</title><g id="BACKGROUND_1" data-name="BACKGROUND 1"><path d="M7.47,52a4.33,4.33,0,0,1-3.1-2.77A4,4,0,0,1,8.48,44c5.63,0,11.27,0,16.9,0h1.28V23c-1.9-.46-3.61-1.42-4.27-3.4a7.54,7.54,0,0,1-.28-3.72,5.46,5.46,0,0,1,5.62-4.13A5.63,5.63,0,0,1,33,16.4c.49,3.17-1,5.25-4.68,6.66V44H29.6c5.39,0,10.79.07,16.18,0,2.54,0,4.24.87,5.06,3.31v1.45A4.66,4.66,0,0,1,47.52,52Zm20-6.43H8.3A2.34,2.34,0,0,0,5.78,48.2c.1,1.41,1.1,2.2,2.84,2.2H37c3.15,0,6.29,0,9.44,0a3.63,3.63,0,0,0,2-.66A2.11,2.11,0,0,0,49,47.08a2.31,2.31,0,0,0-2.36-1.5Zm4-28.17a4,4,0,1,0-8.08,0,4,4,0,0,0,8.08,0Z"/><path d="M8.3,5.32a1.13,1.13,0,0,1,.19,1.56A21.61,21.61,0,0,0,8.45,28a1.42,1.42,0,0,1-.09,1.31c-.55.43-1,0-1.28-.56a23.15,23.15,0,0,1,0-22.57,6.66,6.66,0,0,1,.6-.83Z"/><path d="M50.84,19.22c-.33,1.61-.55,3.25-1,4.82a49.54,49.54,0,0,1-1.91,4.67c-.24.56-.71,1-1.27.57a1.42,1.42,0,0,1-.1-1.32,21.62,21.62,0,0,0,0-21.09,1.12,1.12,0,0,1,.19-1.56h.62c.9,2,1.92,4,2.67,6.06a28.21,28.21,0,0,1,.86,4.31Z"/><path class="cls-1" d="M47.52,52a4.66,4.66,0,0,0,3.32-3.32V52Z"/><path d="M40.5,17.43a14.81,14.81,0,0,1-1.77,7.14c-.27.52-.55,1.17-1.31.75s-.39-.91-.12-1.43a13.52,13.52,0,0,0,0-13c-.27-.52-.54-1.07.14-1.42s1,.17,1.27.69A15.18,15.18,0,0,1,40.5,17.43Z"/><path d="M14.48,17.37a14.83,14.83,0,0,1,1.82-7.23c.29-.55.66-1,1.29-.62s.37.85.11,1.35a13.5,13.5,0,0,0,0,13.16c.27.52.39,1.08-.25,1.28a1.3,1.3,0,0,1-1.1-.54A14.13,14.13,0,0,1,14.48,17.37Z"/><path d="M22.6,48.75H9a2.21,2.21,0,0,1-.92,0c-.28-.14-.64-.49-.64-.73s.38-.57.66-.73.54,0,.82,0H36.41c.28,0,.61-.09.82,0s.67.49.67.74-.4.57-.69.71a2.29,2.29,0,0,1-.92,0Z"/><path d="M40.18,48.86c-.19-.3-.56-.63-.51-.88a1.12,1.12,0,0,1,.76-.7c.18,0,.63.42.65.68s-.31.6-.49.9Z"/><path d="M44.76,48c-.57.37-.87.73-1.18.73s-.75-.45-.72-.63a1.11,1.11,0,0,1,.68-.78C43.84,47.24,44.18,47.61,44.76,48Z"/><path d="M47,47.11c.17.31.49.63.47.92s-.48.69-.66.65a1.1,1.1,0,0,1-.75-.7c0-.27.35-.59.55-.88Z"/><path d="M27.53,14.64a2.81,2.81,0,0,1,2.75,2.51c0,.2-.18.39-.28.59-.17-.17-.47-.32-.49-.5a2.08,2.08,0,0,0-1.88-1.89c-.18,0-.31-.28-.46-.42Z"/></g></svg>