<svg xmlns="http://www.w3.org/2000/svg" viewBox="0 0 54.98 57.33"><title>125422-OR2GKL-211</title><g id="BACKGROUND_1" data-name="BACKGROUND 1"><path d="M9.6,27H7.21V24.58H4.78V14l.81,0c0-.18,0-.36,0-.53,0-2.28,0-4.56.07-6.84A2.25,2.25,0,0,1,7.81,4.34c1.81-.07,3.63-.06,5.44,0a2.59,2.59,0,0,1,1.93,2,12.77,12.77,0,0,1,.12,1.81c0,1.78,0,3.57,0,5.35,0,.16,0,.33,0,.52l.74.05V24.54H13.73V27H11.23c0,.19,0,.33,0,.48,0,3.29,0,6.59.11,9.88A14.32,14.32,0,0,0,15.5,46.8a13.24,13.24,0,0,1-1.3-10.34,12.51,12.51,0,0,1,6.61-8A12.89,12.89,0,0,1,36.26,31.3a12.75,12.75,0,0,1,3.36,9.21,13.65,13.65,0,0,1-3.93,9c.36-.18.72-.36,1.06-.56a14.66,14.66,0,0,0,7.59-10.91,33.69,33.69,0,0,0,.17-4.53.36.36,0,0,0-.18-.27A2.43,2.43,0,0,1,43,31.55a.5.5,0,0,0-.59-.45,2.82,2.82,0,0,1-.72-.07,1.33,1.33,0,0,1-1.14-1.29c0-1.71,0-3.41,0-5.16l.72-.06V19h8.12v5.58l.78,0s.06.07.06.09c0,1.68,0,3.35-.06,5,0,.82-.39,1.17-1.2,1.35a1.39,1.39,0,0,1-.36.05c-.51,0-.85.06-1,.7a2.09,2.09,0,0,1-1.17,1.43.63.63,0,0,0-.36.64c0,1.46,0,2.94-.17,4.39a15.35,15.35,0,0,1-5.45,10,19.26,19.26,0,0,1-8.68,4.18,21.26,21.26,0,0,1-8.28.36,16.29,16.29,0,0,1-12.15-9,15.47,15.47,0,0,1-1.74-7.24c0-3,0-6,0-9C9.6,27.39,9.6,27.24,9.6,27Zm26,15.44a8.91,8.91,0,1,0-8.94,8.93A8.94,8.94,0,0,0,35.57,42.47Zm1.56,1.71A11.15,11.15,0,0,0,33.59,31,11.34,11.34,0,0,0,18.4,32.24a11.65,11.65,0,0,0-2.91,5.69c-.38,1.8,0,5.48.77,6.35a10.43,10.43,0,0,1,2.18-8.36,10.23,10.23,0,0,1,7.64-4,10,10,0,0,1,7.16,2.3A10.6,10.6,0,0,1,37.13,44.18ZM7.23,14h6.43V11.62H7.23Zm37.24,9L42.93,23v1.53h4.8v-1.6H46.14c0-.43,0-.81,0-1.18s.1-.41.39-.4.8,0,1.2,0v-.75H42.91v.73h1.57ZM13.63,6.67a1.05,1.05,0,0,0-1.06-.75l-4.25,0c-.53,0-.8.2-1,.78ZM8.81,9.95V8.39H8V9.95Zm4.06.11c.29-.11.65-.17.67-.28a3.26,3.26,0,0,0,0-1.22c0-.12-.4-.17-.68-.27Zm-1.69-.11V8.38H10.5V9.95Z"/></g></svg>