<svg xmlns="http://www.w3.org/2000/svg" viewBox="0 0 54.98 57.33"><defs><style>.cls-1{fill:none;stroke:#000;stroke-miterlimit:10;stroke-width:0.7px;}</style></defs><title>125422-OR2GKL-211</title><g id="BACKGROUND_1" data-name="BACKGROUND 1"><path class="cls-1" d="M8.63,23.16A18.86,18.86,0,0,0,27.49,42h0A18.86,18.86,0,0,0,46.35,23.16V21.48H8.63Z"/><path class="cls-1" d="M19.24,21.48h16.5a0,0,0,0,1,0,0v3.43a8.25,8.25,0,0,1-8.25,8.25h0a8.25,8.25,0,0,1-8.25-8.25V21.48A0,0,0,0,1,19.24,21.48Z"/><circle cx="27.49" cy="26.7" r="3.08"/><rect class="cls-1" x="2.74" y="15.32" width="49.51" height="6.16"/></g></svg>