<svg xmlns="http://www.w3.org/2000/svg" viewBox="0 0 54.98 57.33"><defs><style>.cls-1{fill:none;stroke:#000;stroke-miterlimit:10;}</style></defs><title>125422-OR2GKL-211</title><g id="BACKGROUND_1" data-name="BACKGROUND 1"><path class="cls-1" d="M47,28.32V26.5a18.77,18.77,0,0,0-37.55,0v.94a9.83,9.83,0,0,0-5.66,8.9v6.82a6.45,6.45,0,0,0,6.45,6.45H15V26.5H13.64a9.88,9.88,0,0,0-1.28.09V26.5a15.89,15.89,0,1,1,31.77,0v.41a9.82,9.82,0,0,0-2.79-.41H40V49.61h4.74a6.45,6.45,0,0,0,6.45-6.45V36.34A9.81,9.81,0,0,0,47,28.32Z"/></g></svg>