<svg xmlns="http://www.w3.org/2000/svg" viewBox="0 0 54.98 57.33"><defs><style>.cls-1{fill:none;stroke:#000;stroke-miterlimit:10;}</style></defs><title>125422-OR2GKL-211</title><g id="BACKGROUND_1" data-name="BACKGROUND 1"><path d="M7.4,16.59A1.72,1.72,0,0,0,5,19L18.13,32.17H23Z"/><path d="M50,19a1.72,1.72,0,0,0-2.43-2.43L32,32.17h4.86Z"/><circle cx="8.38" cy="36.71" r="1.27"/><circle cx="13.6" cy="36.71" r="1.27"/><circle cx="18.83" cy="36.71" r="1.27"/><circle cx="24.06" cy="36.71" r="1.27"/><circle cx="43.54" cy="36.71" r="1.27"/><path class="cls-1" d="M48,41.25H7a4.54,4.54,0,0,1-4.54-4.54h0A4.54,4.54,0,0,1,7,32.17H48a4.54,4.54,0,0,1,4.54,4.54h0A4.54,4.54,0,0,1,48,41.25Z"/></g></svg>