<svg xmlns="http://www.w3.org/2000/svg" viewBox="0 0 54.98 57.33"><title>125422-OR2GKL-211</title><g id="BACKGROUND_1" data-name="BACKGROUND 1"><path d="M49.65,28.78A22.16,22.16,0,1,1,27.16,6.52C39.49,6.29,49.4,16.11,49.65,28.78ZM47.58,28a20.11,20.11,0,1,0-17.67,20.6A20.09,20.09,0,0,0,47.58,28Z"/><path d="M25.25,38.38H22.14a7.73,7.73,0,0,1,.47-.76c1.44-1.76,2.91-3.5,4.33-5.27.53-.66.93-.74,1.47,0,1.34,1.79,2.72,3.56,4.08,5.34.15.2.27.43.53.85H30c0,1.44,0,2.74,0,4s0,2.48,0,3.71c0,.71-.25,1-.93.93-1,0-1.94,0-2.91,0-.72,0-.91-.26-.9-.94,0-2.21,0-4.42,0-6.62C25.25,39.26,25.25,38.89,25.25,38.38Z"/><path d="M30,18.77h3a6.05,6.05,0,0,1-.42.81q-2.11,2.75-4.23,5.49c-.36.47-.71.7-1.2.11-1.59-1.95-3.19-3.88-4.78-5.82-.05-.07-.05-.18-.11-.4h3V15.87c0-1.61,0-3.22,0-4.82,0-.72.25-.95.94-.92a26.92,26.92,0,0,0,2.71,0c.81,0,1.13.21,1.11,1.07-.05,2.14,0,4.29,0,6.43C30,17.95,30,18.28,30,18.77Z"/><path d="M17.73,33.74V30.6H13.79c-1.34,0-2.68,0-4,0-.27,0-.76-.3-.77-.48-.07-1.36,0-2.72,0-4.16h8.62v-3a2.11,2.11,0,0,1,.51.16c1.91,1.46,3.82,2.94,5.73,4.4.63.48.68.86,0,1.4-1.8,1.44-3.56,2.94-5.34,4.41A7,7,0,0,1,17.73,33.74Z"/><path d="M37.52,23v2.89h8.54v4.66H37.34v3.29l-2.62-2.14c-1.16-1-2.31-1.93-3.48-2.88-.41-.34-.74-.72-.21-1.14,2.05-1.64,4.14-3.23,6.21-4.84Z"/></g></svg>