<svg id="Capa_1" enable-background="new 0 0 512 512" height="512" viewBox="0 0 512 512" width="512" xmlns="http://www.w3.org/2000/svg"><g><path d="m308.5 398.5c0-12.407-10.093-22.5-22.5-22.5s-22.5 10.093-22.5 22.5 10.093 22.5 22.5 22.5 22.5-10.093 22.5-22.5zm-30 0c0-4.136 3.364-7.5 7.5-7.5s7.5 3.364 7.5 7.5-3.364 7.5-7.5 7.5-7.5-3.364-7.5-7.5z"/><path d="m368.5 398.5c0-12.407-10.093-22.5-22.5-22.5s-22.5 10.093-22.5 22.5 10.093 22.5 22.5 22.5 22.5-10.093 22.5-22.5zm-30 0c0-4.136 3.364-7.5 7.5-7.5s7.5 3.364 7.5 7.5-3.364 7.5-7.5 7.5-7.5-3.364-7.5-7.5z"/><path d="m248.5 398.5c0-12.407-10.093-22.5-22.5-22.5s-22.5 10.093-22.5 22.5 10.093 22.5 22.5 22.5 22.5-10.093 22.5-22.5zm-30 0c0-4.136 3.364-7.5 7.5-7.5s7.5 3.364 7.5 7.5-3.364 7.5-7.5 7.5-7.5-3.364-7.5-7.5z"/><path d="m188.5 398.5c0-12.407-10.093-22.5-22.5-22.5s-22.5 10.093-22.5 22.5 10.093 22.5 22.5 22.5 22.5-10.093 22.5-22.5zm-30 0c0-4.136 3.364-7.5 7.5-7.5s7.5 3.364 7.5 7.5-3.364 7.5-7.5 7.5-7.5-3.364-7.5-7.5z"/><path d="m482 331.755v-46.173c0-5.791-1.369-11.59-3.959-16.771l-3.541-7.082v-193.229c0-12.407-10.093-22.5-22.5-22.5s-22.5 10.093-22.5 22.5v193.229l-3.542 7.082c-2.59 5.18-3.958 10.979-3.958 16.771v45.418h-70.667v-45.418c0-5.792-1.369-11.591-3.959-16.771l-3.541-7.082v-193.229c0-12.407-10.093-22.5-22.5-22.5s-22.5 10.093-22.5 22.5v193.229l-3.541 7.082c-2.59 5.179-3.959 10.979-3.959 16.771v45.418h-70.667v-45.418c0-5.792-1.369-11.592-3.959-16.771l-3.541-7.082v-193.229c0-12.407-10.093-22.5-22.5-22.5s-22.5 10.093-22.5 22.5v193.229l-3.541 7.082c-2.59 5.18-3.959 10.979-3.959 16.771v45.418h-48.166c-4.142 0-7.5 3.358-7.5 7.5s3.358 7.5 7.5 7.5h362c12.407 0 22.5 10.093 22.5 22.5v60c0 12.407-10.093 22.5-22.5 22.5h-437c-12.407 0-22.5-10.093-22.5-22.5v-60c0-12.407 10.093-22.5 22.5-22.5h45c4.142 0 7.5-3.358 7.5-7.5v-52.918c0-5.791-1.369-11.59-3.959-16.771l-3.541-7.082v-193.229c0-12.407-10.093-22.5-22.5-22.5s-22.5 10.093-22.5 22.5v193.229l-3.542 7.082c-2.59 5.18-3.958 10.979-3.958 16.771v46.171c-17.095 3.485-30 18.638-30 36.747v60c0 20.678 16.822 37.5 37.5 37.5h437c20.678 0 37.5-16.822 37.5-37.5v-60c0-18.11-12.904-33.261-30-36.745zm-30-270.755c4.136 0 7.5 3.364 7.5 7.5v187.5h-15v-187.5c0-4.136 3.364-7.5 7.5-7.5zm-15 224.582c0-3.475.821-6.955 2.375-10.062l2.26-4.52h20.73l2.26 4.52c1.554 3.108 2.375 6.588 2.375 10.063v45.417h-30zm-115.667-224.582c4.136 0 7.5 3.364 7.5 7.5v187.5h-15v-187.5c0-4.136 3.365-7.5 7.5-7.5zm-15 224.582c0-3.476.821-6.955 2.375-10.062l2.26-4.52h20.729l2.26 4.52c1.554 3.108 2.375 6.587 2.375 10.062v45.418h-30v-45.418zm-115.666-224.582c4.136 0 7.5 3.364 7.5 7.5v187.5h-15v-187.5c0-4.136 3.364-7.5 7.5-7.5zm-15 224.582c0-3.475.821-6.954 2.376-10.063l2.26-4.52h20.729l2.26 4.52c1.554 3.107 2.375 6.586 2.375 10.062v45.419h-30zm-100.667 45.418h-30v-45.418c0-3.475.821-6.955 2.375-10.063l2.26-4.52h20.73l2.26 4.52c1.554 3.108 2.375 6.588 2.375 10.063zm-15-270c4.136 0 7.5 3.364 7.5 7.5v187.5h-15v-187.5c0-4.136 3.364-7.5 7.5-7.5z"/></g></svg>